<?xml version="1.0" encoding="UTF-8"?>
<svg id="Layer_1" xmlns="http://www.w3.org/2000/svg" version="1.1" viewBox="0 0 1700 487.1">
  <!-- Generator: Adobe Illustrator 30.1.0, SVG Export Plug-In . SVG Version: 2.1.1 Build 136)  -->
  <defs>
    <style>
      .st0 {
        fill: #fff;
      }
    </style>
  </defs>
  <path class="st0" d="M4.9,52.8V6.8h217.9c0,0,0,46.6,0,46.6h-80.6c0,.1,0,222.8,0,222.8h-54.8c0,0,0-222.7,0-222.7H16.5c-4.2,0-8-.3-11.6-.7Z"/>
  <path class="st0" d="M1293.8,283.6c-10.8-2.2-21.9-.5-32,4.1-16.6,7.5-23.7,23.6-26.1,41.1v103.5s-51.4,0-51.4,0v-193.4s49.2,0,49.2,0l.5,30.9c12.1-18.9,22.7-33,46.9-32.5s9.2-.7,13.5,1.3v39.6c0,.7,1.4,2.6,1.3,2.2,14.5-25.8,40-42.7,69.6-45.9,40.8-4.5,77,12.2,94.4,50.1,9.4,20.4,13,42.4,12.9,65.4h-139.6c1.1,12.6,5.1,23.4,12.4,32.3,11.1,13.5,28.6,17.7,45.2,15.2,13.3-2.3,23.4-10.2,28-22.9h50.9c-5.3,25.2-21.7,44.6-44.7,55-24.1,10.2-50.5,11.1-75.7,3.9-21.4-6.1-38.9-19.1-50.9-37.6-20-30.8-22-77.5-4.5-112.1ZM1418.6,314.4c-.6-13.2-5.9-24.8-15.8-32.7-17.8-14.2-49.1-10.2-61.4,10.6-3.9,6.6-6,13.2-7.9,22.1h85.1Z"/>
  <path class="st0" d="M281.1,152.6c-5.8-1.8-11.6-.7-17.4.4-13.7,2.6-25.1,10.9-31.3,23.5-4,8-5.1,16.4-6.5,25.6v99.2c0,0-51.1,0-51.1,0V107.8s49.3-.1,49.3-.1l.4,30.9,10.9-15.6c10.2-14.6,32.1-20.4,49.5-15.9l.3,37.8c7.5-9.6,14.9-18.5,25.1-25.7,31.3-22,79.6-22.2,109.7.5s40.3,62.4,39.8,99.2h-139.3c2,28.6,20.8,49.1,50.2,48.1,16,0,29.6-8.3,35.4-23.4h50.8c-12.4,55.3-70.2,72.7-119.8,59-23.6-6.5-43-21.7-54.7-43.2-16.8-30.7-18-73.3-1.3-106.7ZM406.2,183.4c-1.2-10.6-4.1-18.6-9.5-26.2-9.8-12.3-25.7-17-41-14-21.3,4.1-31.2,19.6-35,40.2h85.5Z"/>
  <path class="st0" d="M1025.5,385.2h-51.1s-.3-120.2-.3-120.2c0-9.6-3.7-19.6-10.8-25.6-17.8-14.9-44.4-8.4-55.3,11.4s-5.1,13-6.3,20.5v114s-51.5,0-51.5,0V115.9s51.4,0,51.4,0v101.4c15.1-18.6,26.6-28.5,50.1-30.2,20-1.5,39.8,3.7,54,18.5s19.3,29,19.3,46.6l.3,133.1Z"/>
  <polygon class="st0" points="1175 250.6 1174.9 298 1093.5 298 1093.5 409.1 1038.8 409.2 1038.8 139.9 1231.8 139.9 1231.8 186.5 1093.6 186.5 1093.5 250.4 1175 250.6"/>
  <path class="st0" d="M1616.9,410.6h51.1c-12.2,55.6-72.1,72.5-119.7,59-58.4-16.6-78.9-79.7-62.8-133.2,10.8-35.8,41.2-62.1,78.4-66,40.1-4.2,75.7,11.5,93.3,48.2,10,20.9,14.2,43.6,13.4,67.2h-139.4c1.9,16.8,9.4,33.5,23,41.3,20.1,11.6,53.2,10,62.7-16.6ZM1617.2,350.4c-.4-10.3-3.6-17.9-8.7-25.4-10.4-13.7-27.8-18.4-44.5-14.2s-28.3,19.9-31.7,39.6h84.8Z"/>
  <path class="st0" d="M568,183.9c-19.7-3.8-38.6,8.9-43.8,28.7s-1.7,8.9-2.4,13.6v111s-51.2,0-51.2,0v-193.4s50,0,50,0v23.7c0,0,.9,1.5.9,1.5,1.7,3.3,15.7-36.2,68.2-29.6,22.7,2.9,41.1,17.5,50,38.5,3.8,8.8,5,17.6,6.5,27.4v131.7s-51.7.2-51.7.2v-113c.7-19.4-6-36.4-26.4-40.3Z"/>
  <path class="st0" d="M753.3,325.4c21.9-.3,34.5-12,38.5-32.8h49.3c-1.9,33.1-24.1,60.3-55.9,69.7-49.9,14.8-105.2-6-123.4-57.8-2.8-8.1-5.1-16.2-5.8-24.7-1.8-20.6-.7-37,6.1-56.3,12-33.9,42.3-57.1,78.2-60.2,27.4-2.4,54,3.1,74.6,21.7,13.3,13,21.4,29,24.4,48.6h-50.5c-3.1-15.4-13.9-26.4-28.8-29.2-11.7-1.8-23.2.9-32.9,7.7-19.9,15.7-21.7,46.3-18.6,69.7s17.5,44,44.7,43.6Z"/>
  <g>
    <path class="st0" d="M1647.5,270.6h19.7v3.7h-7.7v20.6h-4.2v-20.6h-7.7v-3.7Z"/>
    <path class="st0" d="M1669.9,270.6h6l6.7,19h0l6.5-19h5.9v24.3h-4v-18.7h0l-6.7,18.7h-3.5l-6.7-18.7h0v18.7h-4v-24.3Z"/>
  </g>
</svg>